<svg xmlns="http://www.w3.org/2000/svg" xmlns:xlink="http://www.w3.org/1999/xlink" width="390" height="755" viewBox="0 0 390 755" fill="none">
  
  <rect width="390" height="755" fill="url(#pattern0_605_2562)" fill-opacity="0.2"/>
  <defs>
    <pattern id="pattern0_605_2562" patternUnits="userSpaceOnUse" viewBox="16399.6 18742 83.568 202.104" width="21.42769251114283%" height="26.768742239238414%" patternContentUnits="objectBoundingBox">
      <g id="pattern0_605_2562_inner">
        <g clip-path="url(#clip0_605_2562)">
          <path d="M16377 18798.2C16378.3 18797.8 16379.7 18798.6 16380.1 18800C16380.4 18801.3 16379.6 18802.7 16378.2 18803.1L16375.8 18803.7C16374.5 18804.1 16373.1 18803.2 16372.7 18801.9C16372.4 18800.5 16373.2 18799.1 16374.5 18798.8L16377 18798.2H16377Z" fill="#2D59DF"/>
          <path d="M16375.2 18804.3C16374.6 18804.3 16374.1 18804.1 16373.6 18803.9C16372.9 18803.5 16372.4 18802.8 16372.2 18802C16372 18801.2 16372.2 18800.4 16372.6 18799.7C16373 18799 16373.6 18798.5 16374.4 18798.3L16376.8 18797.7C16378.5 18797.2 16380.1 18798.2 16380.5 18799.8C16380.8 18800.6 16380.6 18801.4 16380.2 18802.1C16379.8 18802.8 16379.2 18803.3 16378.4 18803.6L16375.9 18804.2C16375.7 18804.3 16375.4 18804.3 16375.2 18804.3ZM16377.1 18798.6L16374.7 18799.3C16374.1 18799.4 16373.7 18799.7 16373.4 18800.2C16373.1 18800.7 16373.1 18801.2 16373.2 18801.8C16373.4 18802.3 16373.7 18802.7 16374.2 18803C16374.6 18803.3 16375.2 18803.4 16375.7 18803.2L16378.1 18802.6C16378.7 18802.4 16379.1 18802.1 16379.4 18801.6C16379.7 18801.2 16379.7 18800.6 16379.6 18800.1C16379.3 18799 16378.2 18798.4 16377.1 18798.6H16377.1Z" fill="#4B77FD"/>
          <path d="M16371.4 18799.6L16351.1 18804.9L16352.3 18809.8L16372.7 18804.5L16371.4 18799.6Z" fill="#2D59DF"/>
          <path d="M16352.4 18810.3C16352.3 18810.3 16352.2 18810.3 16352.1 18810.3C16352 18810.2 16351.9 18810.1 16351.9 18810L16350.6 18805C16350.5 18804.8 16350.7 18804.5 16351 18804.4L16371.3 18799.1C16371.4 18799.1 16371.6 18799.1 16371.7 18799.2C16371.8 18799.2 16371.9 18799.3 16371.9 18799.5L16373.2 18804.4C16373.3 18804.7 16373.1 18804.9 16372.8 18805L16352.5 18810.3C16352.5 18810.3 16352.4 18810.3 16352.4 18810.3ZM16351.7 18805.3L16352.7 18809.2L16372.1 18804.2L16371.1 18800.2L16351.7 18805.3Z" fill="#4B77FD"/>
          <path d="M16345.8 18808.9L16352.4 18809.8C16352.9 18808.1 16352.4 18806.2 16351.1 18804.9L16345.8 18808.9V18808.9Z" fill="#2D59DF"/>
          <path d="M16352.4 18810.3C16352.4 18810.3 16352.3 18810.3 16352.3 18810.3L16345.7 18809.4C16345.5 18809.4 16345.3 18809.3 16345.3 18809.1C16345.2 18808.9 16345.3 18808.7 16345.5 18808.5L16350.8 18804.5C16351 18804.4 16351.2 18804.4 16351.4 18804.6C16352.9 18806 16353.4 18808 16352.8 18810C16352.8 18810.2 16352.6 18810.3 16352.4 18810.3H16352.4ZM16347 18808.6L16352 18809.3C16352.3 18808 16351.9 18806.6 16351 18805.6L16347.1 18808.6H16347Z" fill="#4B77FD"/>
          <path d="M16375.4 18798.5L16371.4 18799.6L16372.7 18804.5L16376.7 18803.5L16375.4 18798.5Z" fill="#2D59DF"/>
          <path d="M16372.7 18805C16372.6 18805 16372.5 18805 16372.4 18805C16372.3 18804.9 16372.2 18804.8 16372.2 18804.6L16370.9 18799.7C16370.9 18799.5 16371 18799.2 16371.3 18799.1L16375.3 18798.1C16375.5 18798 16375.6 18798.1 16375.7 18798.1C16375.8 18798.2 16375.9 18798.3 16375.9 18798.4L16377.2 18803.3C16377.3 18803.6 16377.1 18803.9 16376.9 18804L16372.8 18805C16372.8 18805 16372.8 18805 16372.7 18805H16372.7ZM16372 18800L16373.1 18803.9L16376.1 18803.1L16375.1 18799.2L16372 18800H16372Z" fill="#4B77FD"/>
          <path d="M16346.1 18822.1L16316.5 18810.9L16327.7 18781.3L16346.1 18822.1ZM16324.2 18807.4L16334.6 18811.4L16328.2 18797L16324.2 18807.4H16324.2Z" fill="#2D59DF"/>
          <path d="M16346.1 18822.6C16346 18822.6 16345.9 18822.6 16345.9 18822.6L16316.3 18811.4C16316.1 18811.3 16315.9 18811 16316 18810.7L16327.3 18781.2C16327.3 18781 16327.5 18780.8 16327.7 18780.8C16327.9 18780.8 16328.1 18781 16328.2 18781.1L16346.5 18821.9C16346.6 18822.1 16346.6 18822.3 16346.4 18822.5C16346.3 18822.6 16346.2 18822.6 16346.1 18822.6ZM16317.1 18810.6L16345.1 18821.2L16327.8 18782.6L16317.1 18810.6ZM16334.7 18811.9C16334.6 18811.9 16334.5 18811.9 16334.5 18811.9L16324.1 18807.9C16323.9 18807.8 16323.8 18807.8 16323.8 18807.6C16323.7 18807.5 16323.7 18807.4 16323.8 18807.3L16327.7 18796.8C16327.8 18796.7 16328 18796.5 16328.2 18796.5C16328.4 18796.5 16328.6 18796.6 16328.7 18796.8L16335.1 18811.2C16335.2 18811.4 16335.2 18811.6 16335 18811.7C16334.9 18811.8 16334.8 18811.9 16334.7 18811.9L16334.7 18811.9ZM16324.9 18807.1L16333.7 18810.5L16328.2 18798.3L16324.9 18807.1Z" fill="#4B77FD"/>
          <path d="M16331.7 18763.2C16331.4 18764 16330.5 18764.7 16329.6 18764.7H16321.6C16320.8 18764.7 16320.3 18764 16320.6 18763.2L16322.4 18758.2C16322.7 18757.4 16323.6 18756.7 16324.4 18756.7H16332.4C16333.3 18756.7 16333.7 18757.4 16333.4 18758.2L16331.7 18763.2H16331.7Z" fill="#2D59DF"/>
          <path d="M16329.6 18765.2H16321.6C16321.1 18765.2 16320.6 18765 16320.3 18764.6C16320 18764.2 16319.9 18763.6 16320.1 18763L16321.9 18758.1C16322.3 18757 16323.4 18756.2 16324.4 18756.2H16332.4C16333 18756.2 16333.4 18756.4 16333.7 18756.8C16334 18757.3 16334.1 18757.8 16333.9 18758.4L16332.1 18763.4C16331.8 18764.4 16330.7 18765.2 16329.6 18765.2ZM16324.4 18757.2C16323.8 18757.2 16323.1 18757.8 16322.8 18758.4L16321.1 18763.4C16321 18763.6 16321 18763.8 16321.1 18764C16321.2 18764.2 16321.4 18764.2 16321.6 18764.2H16329.6C16330.2 18764.2 16331 18763.7 16331.2 18763L16332.9 18758.1C16333 18757.8 16333 18757.6 16332.9 18757.4C16332.8 18757.3 16332.6 18757.2 16332.4 18757.2H16324.4Z" fill="#4B77FD"/>
          <path d="M16339.9 18763.2C16339.6 18764 16338.7 18764.7 16337.9 18764.7H16329.8C16329 18764.7 16328.6 18764 16328.9 18763.2L16330.6 18758.2C16330.9 18757.4 16331.8 18756.7 16332.6 18756.7H16340.7C16341.5 18756.7 16341.9 18757.4 16341.6 18758.2L16339.9 18763.2H16339.9Z" fill="#2D59DF"/>
          <path d="M16337.9 18765.2H16329.8C16329.3 18765.2 16328.8 18765 16328.5 18764.6C16328.2 18764.2 16328.2 18763.6 16328.4 18763L16330.1 18758.1C16330.5 18757 16331.6 18756.2 16332.6 18756.2H16340.7C16341.2 18756.2 16341.7 18756.4 16342 18756.8C16342.3 18757.3 16342.3 18757.8 16342.1 18758.4L16340.4 18763.4C16340 18764.4 16338.9 18765.2 16337.9 18765.2ZM16332.6 18757.2C16332 18757.2 16331.3 18757.8 16331.1 18758.4L16329.3 18763.4C16329.2 18763.6 16329.2 18763.8 16329.3 18764C16329.5 18764.2 16329.7 18764.2 16329.8 18764.2H16337.9C16338.5 18764.2 16339.2 18763.7 16339.4 18763L16341.2 18758.1C16341.3 18757.8 16341.3 18757.6 16341.2 18757.4C16341 18757.3 16340.8 18757.2 16340.7 18757.2H16332.6Z" fill="#4B77FD"/>
          <path d="M16339.9 18763.2L16341.7 18758.2C16341.9 18757.4 16341.5 18756.7 16340.7 18756.7H16340.3C16339.5 18756.7 16338.5 18757.4 16338.2 18758.2L16336.5 18763.2C16336.2 18764 16336.6 18764.7 16337.5 18764.7H16337.9C16338.7 18764.7 16339.6 18764 16339.9 18763.2H16339.9Z" fill="#2D59DF"/>
          <path d="M16337.9 18765.2H16337.5C16336.9 18765.2 16336.4 18765 16336.2 18764.6C16335.9 18764.2 16335.8 18763.6 16336 18763L16337.8 18758.1C16338.1 18757 16339.2 18756.2 16340.3 18756.2H16340.7C16341.2 18756.2 16341.7 18756.4 16342 18756.8C16342.3 18757.3 16342.3 18757.8 16342.1 18758.4L16340.4 18763.4C16340 18764.4 16338.9 18765.2 16337.9 18765.2ZM16340.3 18757.2C16339.7 18757.2 16338.9 18757.8 16338.7 18758.4L16337 18763.4C16336.9 18763.6 16336.9 18763.8 16337 18764C16337.1 18764.2 16337.3 18764.2 16337.5 18764.2H16337.9C16338.5 18764.2 16339.2 18763.7 16339.4 18763L16341.2 18758.1C16341.3 18757.8 16341.3 18757.6 16341.2 18757.4C16341 18757.3 16340.8 18757.2 16340.7 18757.2H16340.3Z" fill="#4B77FD"/>
          <path d="M16368.9 18782.7L16354.5 18768.2L16375.3 18747.7L16385.4 18758L16385.4 18766.4L16368.9 18782.7Z" fill="#2D59DF"/>
          <path d="M16368.9 18783.2C16368.8 18783.2 16368.6 18783.2 16368.5 18783.1L16354.2 18768.6C16354 18768.4 16354 18768 16354.2 18767.8L16374.9 18747.3C16375 18747.3 16375.2 18747.2 16375.3 18747.2C16375.4 18747.2 16375.5 18747.3 16375.6 18747.4L16385.7 18757.6C16385.8 18757.7 16385.9 18757.8 16385.9 18757.9L16385.8 18766.4C16385.8 18766.6 16385.8 18766.7 16385.7 18766.8L16369.2 18783.1C16369.1 18783.2 16369 18783.2 16368.9 18783.2H16368.9ZM16355.2 18768.2L16368.9 18782L16384.9 18766.2L16384.9 18758.1L16375.3 18748.4L16355.2 18768.2L16355.2 18768.2Z" fill="#4B77FD"/>
          <path d="M16381.1 18766.8C16380.9 18766.8 16380.8 18766.7 16380.7 18766.6L16370.7 18756.5C16370.6 18756.3 16370.6 18756 16370.7 18755.8C16370.9 18755.6 16371.3 18755.6 16371.5 18755.8L16381.4 18765.9C16381.6 18766.1 16381.6 18766.4 16381.4 18766.6C16381.3 18766.7 16381.2 18766.8 16381.1 18766.8V18766.8Z" fill="#4B77FD"/>
          <path d="M16378.7 18769.1C16378.6 18769.1 16378.5 18769.1 16378.4 18769L16368.4 18758.9C16368.2 18758.7 16368.2 18758.4 16368.4 18758.2C16368.6 18758 16368.9 18758 16369.1 18758.2L16379.1 18768.2C16379.3 18768.4 16379.3 18768.8 16379.1 18769C16379 18769.1 16378.9 18769.1 16378.7 18769.1V18769.1Z" fill="#4B77FD"/>
          <path d="M16376.4 18771.4C16376.2 18771.4 16376.1 18771.4 16376 18771.3L16366 18761.2C16365.8 18761 16365.8 18760.7 16366 18760.5C16366.2 18760.3 16366.5 18760.3 16366.7 18760.5L16376.7 18770.6C16376.9 18770.8 16376.9 18771.1 16376.7 18771.3C16376.6 18771.4 16376.5 18771.4 16376.4 18771.4V18771.4Z" fill="#4B77FD"/>
          <path d="M16374 18773.8C16373.9 18773.8 16373.8 18773.7 16373.7 18773.6L16363.7 18763.5C16363.5 18763.3 16363.5 18763 16363.7 18762.8C16363.9 18762.6 16364.2 18762.6 16364.4 18762.8L16374.4 18772.9C16374.6 18773.1 16374.6 18773.4 16374.4 18773.6C16374.3 18773.7 16374.1 18773.8 16374 18773.8V18773.8Z" fill="#4B77FD"/>
          <path d="M16371.7 18776.1C16371.5 18776.1 16371.4 18776.1 16371.3 18776L16361.3 18765.9C16361.1 18765.7 16361.1 18765.4 16361.3 18765.2C16361.5 18765 16361.8 18765 16362 18765.2L16372 18775.2C16372.2 18775.4 16372.2 18775.8 16372 18776C16371.9 18776.1 16371.8 18776.1 16371.7 18776.1V18776.1Z" fill="#4B77FD"/>
          <path d="M16369.3 18778.4C16369.2 18778.4 16369 18778.4 16368.9 18778.3L16359 18768.2C16358.8 18768 16358.8 18767.7 16359 18767.5C16359.2 18767.3 16359.5 18767.3 16359.7 18767.5L16369.7 18777.6C16369.8 18777.8 16369.8 18778.1 16369.7 18778.3C16369.6 18778.4 16369.4 18778.4 16369.3 18778.4V18778.4Z" fill="#4B77FD"/>
          <path d="M16381.1 18762.2L16385.4 18766.4L16385.4 18758L16381.1 18762.2Z" fill="#2D59DF"/>
          <path d="M16385.4 18766.9C16385.2 18766.9 16385.1 18766.9 16385 18766.8L16380.8 18762.5C16380.6 18762.3 16380.6 18762 16380.8 18761.8L16385 18757.6C16385.2 18757.5 16385.4 18757.4 16385.6 18757.5C16385.8 18757.6 16385.9 18757.7 16385.9 18757.9L16385.9 18766.4C16385.9 18766.6 16385.7 18766.8 16385.5 18766.9C16385.5 18766.9 16385.4 18766.9 16385.4 18766.9ZM16381.8 18762.2L16384.9 18765.2L16384.9 18759.2L16381.8 18762.2H16381.8Z" fill="#4B77FD"/>
          <path d="M16370.3 18781.1L16351.3 18773.7L16361.8 18746.5L16375.2 18751.7L16378.7 18759.4L16370.3 18781.1Z" fill="#2D59DF"/>
          <path d="M16370.3 18781.6C16370.3 18781.6 16370.2 18781.6 16370.1 18781.5L16351.1 18774.2C16350.8 18774.1 16350.7 18773.8 16350.8 18773.6L16361.3 18746.3C16361.4 18746.2 16361.4 18746.1 16361.6 18746.1C16361.7 18746 16361.8 18746 16361.9 18746.1L16375.4 18751.2C16375.5 18751.3 16375.6 18751.4 16375.7 18751.5L16379.1 18759.2C16379.2 18759.4 16379.2 18759.5 16379.1 18759.6L16370.8 18781.2C16370.7 18781.4 16370.6 18781.5 16370.5 18781.5C16370.5 18781.6 16370.4 18781.6 16370.3 18781.6V18781.6ZM16351.9 18773.4L16370 18780.4L16378.1 18759.5L16374.9 18752.1L16362.1 18747.2L16351.9 18773.4Z" fill="#4B77FD"/>
          <path d="M16374.7 18761.6C16374.6 18761.6 16374.6 18761.5 16374.5 18761.5L16361.3 18756.4C16361 18756.3 16360.9 18756 16361 18755.8C16361.1 18755.5 16361.4 18755.4 16361.6 18755.5L16374.9 18760.6C16375.1 18760.7 16375.3 18761 16375.2 18761.2C16375.1 18761.4 16374.9 18761.6 16374.7 18761.6Z" fill="#4B77FD"/>
          <path d="M16373.5 18764.7C16373.4 18764.7 16373.4 18764.7 16373.3 18764.6L16360.1 18759.5C16359.8 18759.4 16359.7 18759.1 16359.8 18758.9C16359.9 18758.6 16360.2 18758.5 16360.5 18758.6L16373.7 18763.7C16373.9 18763.8 16374.1 18764.1 16374 18764.3C16373.9 18764.5 16373.7 18764.7 16373.5 18764.7Z" fill="#4B77FD"/>
          <path d="M16372.3 18767.8C16372.2 18767.8 16372.2 18767.7 16372.1 18767.7L16358.9 18762.6C16358.6 18762.5 16358.5 18762.2 16358.6 18762C16358.7 18761.7 16359 18761.6 16359.3 18761.7L16372.5 18766.8C16372.7 18766.9 16372.9 18767.2 16372.8 18767.4C16372.7 18767.6 16372.5 18767.8 16372.3 18767.8Z" fill="#4B77FD"/>
          <path d="M16371.1 18770.8C16371.1 18770.8 16371 18770.8 16370.9 18770.8L16357.7 18765.7C16357.4 18765.6 16357.3 18765.3 16357.4 18765.1C16357.5 18764.8 16357.8 18764.7 16358.1 18764.8L16371.3 18769.9C16371.6 18770 16371.7 18770.3 16371.6 18770.5C16371.5 18770.7 16371.3 18770.8 16371.1 18770.8Z" fill="#4B77FD"/>
          <path d="M16369.9 18773.9C16369.9 18773.9 16369.8 18773.9 16369.8 18773.9L16356.5 18768.8C16356.3 18768.7 16356.1 18768.4 16356.2 18768.1C16356.3 18767.9 16356.6 18767.8 16356.9 18767.9L16370.1 18773C16370.4 18773.1 16370.5 18773.3 16370.4 18773.6C16370.3 18773.8 16370.1 18773.9 16369.9 18773.9Z" fill="#4B77FD"/>
          <path d="M16368.7 18777C16368.7 18777 16368.6 18777 16368.6 18777L16355.3 18771.9C16355.1 18771.8 16354.9 18771.5 16355 18771.2C16355.1 18771 16355.4 18770.8 16355.7 18770.9L16368.9 18776C16369.2 18776.1 16369.3 18776.4 16369.2 18776.7C16369.1 18776.9 16368.9 18777 16368.7 18777Z" fill="#4B77FD"/>
          <path d="M16373.1 18757.3L16378.7 18759.4L16375.2 18751.7L16373.1 18757.3Z" fill="#2D59DF"/>
          <path d="M16378.7 18759.9C16378.6 18759.9 16378.5 18759.9 16378.5 18759.9L16372.9 18757.8C16372.8 18757.7 16372.7 18757.6 16372.6 18757.5C16372.5 18757.4 16372.5 18757.2 16372.6 18757.1L16374.8 18751.5C16374.8 18751.3 16375 18751.2 16375.2 18751.2C16375.4 18751.2 16375.6 18751.3 16375.7 18751.5L16379.1 18759.3C16379.2 18759.4 16379.2 18759.7 16379 18759.8C16378.9 18759.9 16378.8 18760 16378.7 18760L16378.7 18759.9ZM16373.7 18757L16377.7 18758.5L16375.2 18753L16373.7 18757Z" fill="#4B77FD"/>
          <path d="M16369.1 18819.5L16370.1 18821.4L16372.3 18821.9L16370.8 18823.5L16371.1 18825.7L16369.1 18824.8L16367 18825.7L16367.3 18823.5L16365.8 18821.9L16368 18821.4L16369.1 18819.5Z" fill="#2D59DF"/>
          <path d="M16367 18826.2C16366.9 18826.2 16366.8 18826.2 16366.7 18826.1C16366.6 18826 16366.5 18825.8 16366.5 18825.7L16366.8 18823.7L16365.4 18822.2C16365.3 18822.1 16365.3 18821.9 16365.3 18821.7C16365.4 18821.5 16365.5 18821.4 16365.7 18821.4L16367.6 18821L16368.6 18819.3C16368.8 18818.9 16369.3 18818.9 16369.5 18819.3L16370.5 18821L16372.4 18821.4C16372.6 18821.4 16372.8 18821.5 16372.8 18821.7C16372.9 18821.9 16372.8 18822.1 16372.7 18822.2L16371.4 18823.7L16371.6 18825.7C16371.6 18825.8 16371.5 18826 16371.4 18826.1C16371.2 18826.2 16371 18826.2 16370.9 18826.2L16369.1 18825.3L16367.3 18826.2C16367.2 18826.2 16367.1 18826.2 16367 18826.2L16367 18826.2ZM16366.7 18822.2L16367.6 18823.2C16367.7 18823.3 16367.8 18823.4 16367.8 18823.6L16367.6 18824.9L16368.8 18824.3C16369 18824.3 16369.1 18824.3 16369.3 18824.3L16370.5 18824.9L16370.3 18823.6C16370.3 18823.4 16370.4 18823.3 16370.5 18823.2L16371.4 18822.2L16370 18821.9C16369.9 18821.9 16369.8 18821.8 16369.7 18821.7L16369.1 18820.5L16368.4 18821.7C16368.3 18821.8 16368.2 18821.9 16368.1 18821.9L16366.7 18822.2Z" fill="#4B77FD"/>
          <path d="M16320.8 18744.5C16320.8 18745.6 16319.9 18746.5 16318.8 18746.5C16317.7 18746.5 16316.8 18745.6 16316.8 18744.5C16316.8 18743.4 16317.7 18742.5 16318.8 18742.5C16319.9 18742.5 16320.8 18743.4 16320.8 18744.5Z" fill="#2D59DF"/>
          <path d="M16318.8 18747C16317.4 18747 16316.3 18745.9 16316.3 18744.5C16316.3 18743.1 16317.4 18742 16318.8 18742C16320.2 18742 16321.3 18743.1 16321.3 18744.5C16321.3 18745.9 16320.2 18747 16318.8 18747ZM16318.8 18743C16318 18743 16317.3 18743.7 16317.3 18744.5C16317.3 18745.3 16318 18746 16318.8 18746C16319.7 18746 16320.3 18745.3 16320.3 18744.5C16320.3 18743.7 16319.7 18743 16318.8 18743Z" fill="#4B77FD"/>
          <path d="M16354.8 18794.7C16354.8 18795.5 16354.2 18796.2 16353.3 18796.2C16352.5 18796.2 16351.8 18795.5 16351.8 18794.7C16351.8 18793.9 16352.5 18793.2 16353.3 18793.2C16354.2 18793.2 16354.8 18793.9 16354.8 18794.7Z" fill="#2D59DF"/>
          <path d="M16353.3 18796.7C16352.2 18796.7 16351.3 18795.8 16351.3 18794.7C16351.3 18793.6 16352.2 18792.7 16353.3 18792.7C16354.4 18792.7 16355.3 18793.6 16355.3 18794.7C16355.3 18795.8 16354.4 18796.7 16353.3 18796.7ZM16353.3 18793.7C16352.8 18793.7 16352.3 18794.1 16352.3 18794.7C16352.3 18795.3 16352.8 18795.7 16353.3 18795.7C16353.9 18795.7 16354.3 18795.3 16354.3 18794.7C16354.3 18794.2 16353.9 18793.7 16353.3 18793.7Z" fill="#4B77FD"/>
        </g>
      </g>
      <use xlink:href="#pattern0_605_2562_inner" transform="translate(83.568 0)"/>
      <use xlink:href="#pattern0_605_2562_inner" transform="translate(41.784 101.052)"/>
      <use xlink:href="#pattern0_605_2562_inner" transform="translate(125.352 101.052)"/>
    </pattern><clipPath id="clip0_605_2562">
    <rect width="69.64" height="84.21" fill="white" transform="translate(16316 18742)"/>
  </clipPath>
</defs>
</svg>