<svg width="100" height="27" viewBox="0 0 100 27" fill="none" xmlns="http://www.w3.org/2000/svg">
<g clip-path="url(#clip0_60_736)">
<path d="M0 12.0849V27H87.9601C94.5988 27 100 21.5786 100 14.9151V0H12.0399C5.40122 0 0 5.42142 0 12.0849Z" fill="#DE3E35"/>
<path d="M83.3069 21.2055C83.9885 21.2055 84.6465 21.0804 85.2641 20.8482C82.6365 19.8619 80.732 16.9427 80.732 13.4949C80.732 10.047 82.6365 7.12782 85.2641 6.1416C84.6465 5.90941 83.9896 5.7843 83.3069 5.7843C79.7225 5.7843 76.8175 9.23665 76.8175 13.4949C76.8175 17.7531 79.7225 21.2055 83.3069 21.2055Z" fill="#FCD937"/>
<path d="M79.2149 14.0947C76.6277 14.4509 74.6357 16.6781 74.6357 19.373C74.6357 19.9354 74.7221 20.4787 74.8838 20.9882L77.1948 20.5317L77.8191 20.2082L78.8264 19.2175L79.5114 15.5972L79.2138 14.097L79.2149 14.0947Z" fill="#FCD937"/>
<path d="M78.0896 5.76068H69.8171C69.8171 7.81541 71.4768 9.48128 73.5239 9.48128H76.5872L78.0908 5.76068H78.0896Z" fill="#FCD937"/>
<path d="M78.2123 11.3647C79.4407 12.3892 80.2234 13.9345 80.2234 15.6624C80.2234 18.7461 77.7328 21.2461 74.6605 21.2461C71.5882 21.2461 69.0976 18.7461 69.0976 15.6624C69.0976 15.163 69.1627 14.6784 69.2851 14.2185L70.1048 14.1881C72.0935 14.1881 73.7599 15.5699 74.2046 17.4297C74.2046 17.4297 74.7458 21.7612 77.6609 20.2373C77.6609 20.2373 78.5503 19.6321 78.5323 18.2637C78.5076 16.4457 77.086 13.6764 71.8442 13.0565L78.0977 5.75391L79.9618 9.40575L78.2336 11.3523L78.2123 11.3647Z" fill="white"/>
<path d="M83.3033 5.7854C82.6217 5.7854 81.9637 5.91051 81.3461 6.1427C83.3011 6.87645 84.8552 8.68095 85.5233 10.9769H89.4355C88.5563 7.95622 86.1432 5.7854 83.3022 5.7854" fill="white"/>
<path d="M81.3461 20.8495C81.9637 21.0816 82.6206 21.2068 83.3033 21.2068C86.142 21.2068 88.5529 19.0404 89.4333 16.0243H85.5211C84.8518 18.3157 83.2988 20.1168 81.3461 20.8495Z" fill="white"/>
<path d="M91.6019 10.9757H89.4358C89.5593 11.4018 89.6536 11.8436 89.7143 12.2989H91.448V12.9403H90.7923V14.6152H90.0388V12.9403H89.7738C89.785 13.124 89.7929 13.3088 89.7929 13.4959C89.7929 14.3818 89.666 15.2317 89.4347 16.024H91.603C92.2779 16.024 92.8259 15.4751 92.8259 14.7966V12.2043C92.8259 11.5269 92.279 10.9768 91.603 10.9768" fill="#FCD937"/>
<path d="M85.8332 12.9402H85.3863C85.3661 13.2908 85.3402 13.5782 85.3099 13.8014C85.2785 14.0256 85.2336 14.1992 85.174 14.3255C85.1145 14.4506 85.0359 14.5374 84.9394 14.5836C84.8428 14.6309 84.7193 14.6546 84.5688 14.6546C84.5239 14.6546 84.4711 14.6512 84.4116 14.6433C84.3521 14.6365 84.2937 14.623 84.2364 14.6027V14.0561C84.2791 14.0674 84.3229 14.073 84.3689 14.073C84.4262 14.073 84.4733 14.0482 84.5115 13.9986C84.5497 13.949 84.5823 13.8588 84.607 13.727C84.6328 13.5962 84.6541 13.4159 84.671 13.1871C84.6878 12.9571 84.7047 12.6618 84.7215 12.3H85.7995C85.74 11.8447 85.6468 11.4017 85.5233 10.9768H84.0837C83.4088 10.9768 82.8608 11.5268 82.8608 12.2042V14.7966C82.8608 15.474 83.4088 16.024 84.0837 16.024H85.521C85.6715 15.5078 85.7782 14.9668 85.8332 14.4077V12.9402Z" fill="#FCD937"/>
<path d="M88.1104 12.7734C87.9914 12.7734 87.8915 12.8095 87.8106 12.8828C87.7298 12.956 87.6893 13.0563 87.6893 13.1837H88.49C88.49 13.0552 88.4563 12.9549 88.39 12.8828C88.3238 12.8106 88.2306 12.7734 88.1115 12.7734" fill="#FCD937"/>
<path d="M89.7736 12.9403H89.3839V12.2989H89.714C89.6545 11.8436 89.5602 11.4018 89.4356 10.9757H85.5233C85.6468 11.4006 85.74 11.8436 85.7996 12.2989H86.5856V14.6152H85.8321V14.4066C85.7771 14.9657 85.6704 15.5067 85.52 16.0229H89.4322C89.6635 15.2306 89.7904 14.3807 89.7904 13.4948C89.7904 13.3077 89.7825 13.1229 89.7724 12.9391M89.1863 13.4926C89.1829 13.5343 89.1795 13.5771 89.1739 13.6233H87.6883C87.6883 13.7056 87.7029 13.7766 87.7332 13.8352C87.7635 13.8938 87.804 13.9411 87.8545 13.9783C87.9061 14.0155 87.9634 14.0426 88.0274 14.0595C88.0914 14.0764 88.1577 14.0854 88.2251 14.0854C88.3699 14.0854 88.517 14.0595 88.6675 14.0065C88.818 13.9535 88.9538 13.8949 89.0762 13.8296V14.4112C89.0021 14.4596 88.9314 14.5002 88.8629 14.5329C88.7944 14.5656 88.7248 14.5926 88.6518 14.614C88.5799 14.6354 88.5024 14.6512 88.4216 14.6614C88.3407 14.6715 88.252 14.676 88.1554 14.676C87.9623 14.676 87.7927 14.6478 87.6468 14.5926C87.5008 14.5374 87.3784 14.4574 87.2784 14.3548C87.1785 14.2522 87.1033 14.1294 87.0505 13.9874C86.9977 13.8453 86.9696 13.6864 86.9674 13.5128V13.4576C86.9674 13.2784 86.991 13.1138 87.0381 12.9639C87.0853 12.814 87.1549 12.6855 87.2492 12.5773C87.3424 12.4691 87.4615 12.3857 87.6052 12.3249C87.7489 12.2651 87.9163 12.2347 88.1094 12.2347C88.2913 12.2347 88.4496 12.2629 88.5866 12.3204C88.7225 12.3778 88.8359 12.4567 88.9246 12.557C89.0133 12.6574 89.0807 12.778 89.1245 12.9155C89.1683 13.053 89.1908 13.204 89.1908 13.3663C89.1908 13.4091 89.1896 13.4508 89.1863 13.4926Z" fill="#FCD937"/>
<path d="M8.27812 8.37901C7.56619 9.0936 7.17542 10.0393 7.17542 11.0435V15.9836L7.51341 15.9318C8.34325 15.8044 8.98443 15.1158 9.07314 14.2614L9.08437 11.0446C9.08437 10.5532 9.27751 10.0877 9.62786 9.73493C9.97821 9.38327 10.442 9.18941 10.9316 9.18941H19.6072V7.27332H10.9327C9.93217 7.27332 8.98892 7.66668 8.27812 8.38014" fill="white"/>
<path d="M17.7005 12.9021L17.6982 15.9554C17.6982 16.448 17.5051 16.9123 17.1548 17.264C16.8044 17.6157 16.3418 17.8095 15.8511 17.8095H7.17542V19.7256H15.8511C16.8516 19.7256 17.7948 19.3323 18.5056 18.6188C19.2175 17.9053 19.6083 16.9597 19.6083 15.9543V11.0142L19.2703 11.066C18.3754 11.2024 17.7005 11.9914 17.7005 12.9009" fill="white"/>
<path d="M16.0194 15.9904V11.1145H14.6011L13.3917 12.6823L12.1812 11.1145H10.763V15.9904H12.2598V13.513L13.3917 14.8689L14.5225 13.513V15.9904H16.0194Z" fill="white"/>
<path d="M39.8488 16.9698H41.6646V11.6577H44.2024V10.0505H39.8488V16.9698Z" fill="white"/>
<path d="M49.6777 12.6327H46.9816V10.0505H45.167V16.9698H46.9816V14.2591H49.6777V16.9698H51.4923V10.0505H49.6777V12.6327Z" fill="white"/>
<path d="M59.9041 11.6577H62.0241V16.9698H63.8399V11.6577H65.9701V10.0505H59.9041V11.6577Z" fill="white"/>
<path d="M54.6432 13.9525V10.0516H52.8275V16.9698H54.3457L57.2338 13.0272V16.9698H59.0495V10.0516H57.4831L54.6432 13.9525Z" fill="white"/>
<path d="M27.608 12.4298L25.772 10.0505H23.9821V16.9698H25.7967V12.8581L27.608 15.03L29.4204 12.8581V16.9698H31.235V10.0505H29.4451L27.608 12.4298Z" fill="white"/>
<path d="M34.6992 10.0505L31.9076 16.9698H33.7346L34.1119 15.9994H36.936L37.3133 16.9698H39.1695L36.3779 10.0505H34.7003H34.6992ZM34.6801 14.5364L35.5234 12.3656L36.3667 14.5364H34.6801Z" fill="white"/>
</g>
<defs>
<clipPath id="clip0_60_736">
<rect width="100" height="27" fill="white"/>
</clipPath>
</defs>
</svg>
