<svg width="28" height="29" viewBox="0 0 28 29" fill="none" xmlns="http://www.w3.org/2000/svg">
<rect y="0.5" width="28" height="28" rx="14" fill="#E22C6E"/>
<path d="M8 8.49982L9.34919 8.72423L9.97384 15.8763C10.0238 16.4604 10.5317 16.9086 11.1414 16.9067H18.2175C18.7994 16.908 19.293 16.4966 19.3754 15.943L19.9909 11.8549C20.0597 11.3979 19.7295 10.974 19.2547 10.9079C19.2132 10.9023 9.56584 10.8992 9.56584 10.8992" stroke="white" stroke-width="1.5" stroke-linecap="round" stroke-linejoin="round"/>
<path fill-rule="evenodd" clip-rule="evenodd" d="M11.5675 19.546C11.8314 19.546 12.0444 19.7597 12.0444 20.0225C12.0444 20.2861 11.8314 20.4999 11.5675 20.4999C11.3036 20.4999 11.0906 20.2861 11.0906 20.0225C11.0906 19.7597 11.3036 19.546 11.5675 19.546Z" fill="white" stroke="white" stroke-width="1.5" stroke-linecap="round" stroke-linejoin="round"/>
<path fill-rule="evenodd" clip-rule="evenodd" d="M17.4049 19.546C17.6686 19.546 17.8823 19.7597 17.8823 20.0225C17.8823 20.2861 17.6686 20.4999 17.4049 20.4999C17.1413 20.4999 16.9285 20.2861 16.9285 20.0225C16.9285 19.7597 17.1413 19.546 17.4049 19.546Z" fill="white" stroke="white" stroke-width="1.5" stroke-linecap="round" stroke-linejoin="round"/>
</svg>
