<svg width="28" height="29" viewBox="0 0 28 29" fill="none" xmlns="http://www.w3.org/2000/svg">
<rect y="0.5" width="28" height="28" rx="14" fill="#E22C6E"/>
<path fill-rule="evenodd" clip-rule="evenodd" d="M12.7778 9.09649C12.7778 8.76706 13.0514 8.5 13.3889 8.5H15.8333C16.093 8.5 16.3243 8.6602 16.4101 8.89944L16.6947 9.69298H17.9214L17.9464 9.69303C18.7308 9.69895 19.4243 10.1912 19.6719 10.9176L19.6797 10.9409L19.6805 10.9433L19.6806 10.9436C19.6842 10.9546 19.6874 10.964 19.6901 10.9726C19.9994 11.937 19.4298 12.9599 18.4325 13.2311C18.4236 13.2335 18.4137 13.2361 18.4022 13.2391L18.0036 13.3433L18.4077 14.4703C18.4658 14.4667 18.5243 14.4649 18.5833 14.4649C20.1021 14.4649 21.3333 15.6667 21.3333 17.1491C21.3333 18.6316 20.1021 19.8333 18.5833 19.8333C17.1678 19.8333 16.0021 18.7894 15.8501 17.4474L14 17.4474L12.761 17.4474C12.609 18.7895 11.4433 19.8333 10.0278 19.8333C8.61227 19.8333 7.44655 18.7895 7.29456 17.4474H7.27778C6.94027 17.4474 6.66667 17.1803 6.66667 16.8509V16.0605V16.0605C6.66666 15.6034 6.66666 15.2262 6.69121 14.9184C6.71669 14.5989 6.77135 14.3046 6.90874 14.0262C7.14902 13.5392 7.55158 13.1462 8.05051 12.9117C8.33581 12.7776 8.63729 12.7243 8.96462 12.6994C9.27994 12.6754 9.66644 12.6754 10.1347 12.6754H10.1347H10.1347H10.355H10.3551C10.9061 12.6754 11.3506 12.6754 11.7124 12.6995C12.0844 12.7243 12.4134 12.7765 12.7249 12.9025C13.4736 13.2052 14.0684 13.7858 14.3785 14.5165C14.5075 14.8206 14.5611 15.1417 14.5864 15.5048C14.6016 15.7222 14.6075 15.9703 14.6097 16.2544H15.9898C16.2128 15.6386 16.6594 15.126 17.2344 14.8095L15.3998 9.69298H13.3889C13.0514 9.69298 12.7778 9.42592 12.7778 9.09649ZM8.53056 17.4474C8.67211 18.128 9.28865 18.6404 10.0278 18.6404C10.7669 18.6404 11.3835 18.128 11.525 17.4474L8.53056 17.4474ZM13.367 15.586C13.38 15.7715 13.3853 15.988 13.3874 16.2544L12.1667 16.2544L7.88889 16.2544V16.0839C7.88889 15.5976 7.88932 15.267 7.90974 15.011C7.92964 14.7615 7.96577 14.6333 8.00993 14.5438C8.13006 14.3003 8.33135 14.1038 8.58081 13.9866C8.67251 13.9435 8.80389 13.9082 9.0595 13.8888C9.32174 13.8688 9.66045 13.8684 10.1587 13.8684H10.3333C10.9112 13.8684 11.314 13.8687 11.6292 13.8897C11.939 13.9104 12.1194 13.9489 12.2571 14.0046C12.7064 14.1862 13.0633 14.5346 13.2493 14.9731C13.3064 15.1075 13.3459 15.2836 13.367 15.586ZM17.5987 12.2141L17.1225 10.886H17.9214L17.937 10.886C18.1984 10.8879 18.4296 11.052 18.5122 11.2942L18.517 11.3087L18.5237 11.329C18.6268 11.6505 18.437 11.9915 18.1045 12.0819L18.0834 12.0874L17.5987 12.2141ZM20.1111 17.1491C20.1111 17.9727 19.4271 18.6403 18.5833 18.6403C17.7396 18.6403 17.0556 17.9727 17.0556 17.1491C17.0556 16.3255 17.7396 15.6579 18.5833 15.6579C19.4271 15.6579 20.1111 16.3255 20.1111 17.1491Z" fill="white"/>
</svg>
