<svg width="26" height="26" viewBox="0 0 26 26" fill="none" xmlns="http://www.w3.org/2000/svg">
<g clip-path="url(#clip0_703_5178)">
<path fill-rule="evenodd" clip-rule="evenodd" d="M26.0605 15.6175C26.2167 16.5013 25.6267 17.3441 24.7431 17.5003L21.7197 18.0343L22.7687 20.9198C23.0754 21.7631 22.6403 22.6955 21.7968 23.0022C21.6135 23.0688 21.4262 23.1004 21.2417 23.1004C20.5776 23.1004 19.9544 22.6905 19.7144 22.0304L18.206 17.8822L14.6251 15.8147V19.9498L17.4631 23.3302C18.0405 24.0175 17.9511 25.0427 17.2635 25.6195C16.9593 25.8752 16.5882 26.0002 16.2195 26.0002C15.7559 26.0002 15.2959 25.8028 14.9744 25.42L13.0001 23.0688L11.0255 25.42C10.4489 26.1073 9.42348 26.1967 8.73641 25.6195C8.04883 25.0427 7.95946 24.0175 8.53684 23.3302L11.3751 19.9498V15.8147L7.79386 17.8822L6.28571 22.0305C6.04541 22.6905 5.42182 23.1004 4.75821 23.1004C4.57397 23.1004 4.38639 23.069 4.20312 23.0022C3.35959 22.6955 2.9245 21.7632 3.23117 20.9198L4.28026 18.0344L1.25679 17.5003C0.373248 17.3441 -0.21683 16.5013 -0.0606269 15.6175C0.0953223 14.7337 0.937936 14.1436 1.82194 14.2998L6.16881 15.0677L9.75001 13.0001L6.16881 10.9326L1.82194 11.7004C1.72637 11.7171 1.63151 11.7253 1.53756 11.7253C0.764213 11.7253 0.0785645 11.1709 -0.0606269 10.3828C-0.21683 9.49897 0.373248 8.6559 1.25679 8.49995L4.28026 7.96568L3.23117 5.0805C2.9245 4.23697 3.35959 3.30452 4.20312 2.99786C5.04619 2.69119 5.97884 3.12628 6.28576 3.96981L7.79391 8.11808L11.3751 10.1856V6.05027L8.53679 2.66991C7.95941 1.98279 8.04878 0.957669 8.73636 0.38054C9.42348 -0.196589 10.4489 -0.107214 11.0255 0.580364L13.0001 2.93154L14.9744 0.580364C15.5513 -0.107214 16.576 -0.196589 17.2635 0.38054C17.9511 0.957669 18.0405 1.98284 17.4631 2.66991L14.6251 6.05032V10.1856L18.206 8.11813L19.7144 3.96986C20.0211 3.12633 20.9533 2.69124 21.7968 2.99791C22.6403 3.30458 23.0754 4.23697 22.7687 5.08055L21.7197 7.96574L24.7431 8.5C25.6267 8.65595 26.2167 9.49902 26.0605 10.3828C25.9213 11.1708 25.2357 11.7254 24.4624 11.7254C24.3684 11.7254 24.2735 11.7173 24.178 11.7004L19.8312 10.9326L16.25 13.0002L19.8312 15.0677L24.178 14.2999C25.062 14.1436 25.9045 14.7337 26.0605 15.6175Z" fill="url(#paint0_linear_703_5178)"/>
</g>
<defs>
<linearGradient id="paint0_linear_703_5178" x1="13" y1="-1.4592e-05" x2="13" y2="26.0002" gradientUnits="userSpaceOnUse">
<stop stop-color="#01DCFE"/>
<stop offset="1" stop-color="#4FADFE"/>
</linearGradient>
<clipPath id="clip0_703_5178">
<rect width="26" height="26" fill="white"/>
</clipPath>
</defs>
</svg>
