<svg width="21" height="22" viewBox="0 0 21 22" fill="none" xmlns="http://www.w3.org/2000/svg">
<path d="M10.3033 4.40002C5.86669 4.40002 2.23669 8.03002 2.23669 12.4667C2.23669 14.6479 3.11455 16.6338 4.53389 18.0896C4.54798 18.1107 4.5644 18.131 4.58339 18.15C4.60419 18.1708 4.62507 18.1883 4.64668 18.2032C6.10543 19.6419 8.10524 20.5333 10.3034 20.5333C14.74 20.5333 18.37 16.9033 18.37 12.4667C18.37 8.03002 14.74 4.40002 10.3033 4.40002ZM16.5367 12.8334H17.6275C17.5405 14.5767 16.8374 16.1647 15.7328 17.3829L14.96 16.6101C14.8134 16.4634 14.5934 16.4634 14.4467 16.6101C14.3 16.7567 14.3 16.9767 14.4467 17.1234L15.2195 17.8962C14.0013 19.0008 12.4133 19.7039 10.67 19.7908V18.7C10.67 18.48 10.5233 18.3334 10.3033 18.3334C10.0833 18.3334 9.93669 18.48 9.93669 18.7V19.7908C8.18426 19.7034 6.58874 18.9933 5.36804 17.8787L6.12335 17.1234C6.27 16.9767 6.27 16.7567 6.12335 16.61C5.97669 16.4634 5.75669 16.4634 5.61 16.61L4.85663 17.3634C3.76204 16.1478 3.06573 14.5675 2.97924 12.8334H4.07C4.25335 12.8334 4.43665 12.6867 4.43665 12.4667C4.43665 12.2467 4.29 12.1001 4.07 12.1001H2.97924C3.06616 10.3568 3.76926 8.76879 4.87386 7.55058L5.64665 8.32337C5.72 8.39672 5.7933 8.43337 5.9033 8.43337C5.97665 8.43337 6.08665 8.39672 6.15996 8.32337C6.30661 8.17672 6.30661 7.95672 6.15996 7.81002L5.38716 7.03723C6.60533 5.93263 8.19337 5.22954 9.93665 5.14261V6.23337C9.93665 6.45337 10.0833 6.60002 10.3033 6.60002C10.4867 6.60002 10.67 6.45337 10.67 6.23337V5.14261C12.4132 5.22954 14.0012 5.93263 15.2194 7.03723L14.4467 7.81002C14.3 7.95668 14.3 8.17668 14.4467 8.32337C14.52 8.39672 14.5933 8.43337 14.7033 8.43337C14.8133 8.43337 14.8867 8.39672 14.96 8.32337L15.7327 7.55058C16.8373 8.76874 17.5404 10.3568 17.6274 12.1001H16.5366C16.3166 12.1001 16.17 12.2467 16.17 12.4667C16.17 12.6867 16.3167 12.8334 16.5367 12.8334Z" fill="white"/>
<path d="M19.47 6.63665C19.7633 6.63665 20.0566 6.52665 20.2766 6.30665C20.7166 5.86665 20.7166 5.1333 20.2766 4.6933L18.81 3.22665C18.37 2.78665 17.6366 2.78665 17.1966 3.22665C16.8393 3.58398 16.7722 4.13471 16.9952 4.56474L16.404 5.15595C15.1043 4.06858 13.5135 3.31921 11.7699 3.047V2.2H12.4666C12.9066 2.2 13.2366 1.87 13.2366 1.46665V0.77C13.2366 0.33 12.9066 0 12.4666 0H8.1033C7.69996 0 7.36996 0.33 7.36996 0.77V1.43C7.36996 1.87 7.69996 2.2 8.1033 2.2H8.83665V3.047C7.10196 3.31779 5.51848 4.06076 4.2225 5.13915L3.62347 4.54012C3.83152 4.11387 3.76058 3.57723 3.41 3.22665C2.97 2.78665 2.23665 2.78665 1.79665 3.22665L0.33 4.6933C-0.11 5.1333 -0.11 5.86665 0.33 6.30665C0.55 6.52665 0.843348 6.63665 1.13665 6.63665C1.39704 6.63665 1.6573 6.54977 1.86639 6.37639L2.49902 7.00902C1.41075 8.55774 0.769957 10.4409 0.769957 12.4666C0.769957 17.71 5.05996 22 10.3033 22C15.5467 22 19.8367 17.71 19.8367 12.4667C19.8367 10.4503 19.2017 8.57532 18.1226 7.03068L18.7605 6.39276C18.966 6.55523 19.2179 6.63665 19.47 6.63665ZM17.71 3.74C17.7833 3.66665 17.8933 3.63 18.0033 3.63C18.1133 3.63 18.2233 3.66665 18.2967 3.74L19.7633 5.20665C19.91 5.39 19.9467 5.64665 19.7633 5.7933C19.58 5.93996 19.3233 5.93996 19.1767 5.7933L19.1104 5.727C19.0911 5.6833 19.0638 5.6436 19.03 5.60996L17.7466 4.32661C17.7234 4.30346 17.6974 4.28333 17.6691 4.26671C17.5653 4.09071 17.5786 3.87131 17.71 3.74ZM17.4533 5.09665L18.2233 5.86665L17.6733 6.41665C17.4533 6.1233 17.1967 5.86665 16.94 5.61L17.4533 5.09665ZM8.1033 0.733348L12.5033 0.77V1.43C12.5033 1.46665 12.5033 1.46665 12.4667 1.46665L8.1033 1.43V0.733348ZM9.56996 2.2H11.0366V2.96149C10.5484 2.92388 10.0581 2.92388 9.56991 2.96149L9.56996 2.2ZM3.1533 5.09665L3.66665 5.61C3.41 5.86665 3.15331 6.12335 2.93331 6.41665L2.3833 5.86665L3.1533 5.09665ZM0.843305 5.79335C0.696652 5.61 0.696652 5.35335 0.843305 5.2067L2.30996 3.74C2.3833 3.66665 2.4933 3.63 2.6033 3.63C2.7133 3.63 2.8233 3.66665 2.89665 3.74C3.0433 3.92335 3.0433 4.18 2.89665 4.32665L1.6133 5.61L1.42996 5.79335C1.2833 5.94 0.989957 5.94 0.843305 5.79335ZM10.3033 21.2667C5.4633 21.2667 1.5033 17.3067 1.5033 12.4667C1.5033 10.5043 2.15437 8.68673 3.25097 7.21897C3.2673 7.20831 3.28363 7.19752 3.29996 7.18665C3.62996 6.71 4.0333 6.30665 4.4733 5.9033C4.48826 5.88835 4.50128 5.87164 4.51318 5.85423C5.79928 4.72588 7.41391 3.96408 9.18981 3.73729C9.20644 3.73888 9.2232 3.73996 9.23996 3.73996C9.9733 3.66661 10.6333 3.66661 11.3666 3.73996H11.4033C11.4106 3.73996 11.4186 3.73931 11.4266 3.73858C15.7413 4.2946 19.1033 8.00705 19.1033 12.4667C19.1033 17.3067 15.1433 21.2667 10.3033 21.2667Z" fill="white"/>
<path d="M17.71 3.74C17.7833 3.66665 17.8933 3.63 18.0033 3.63C18.1133 3.63 18.2233 3.66665 18.2967 3.74L19.7633 5.20665C19.91 5.39 19.9467 5.64665 19.7633 5.7933C19.58 5.93996 19.3233 5.93996 19.1767 5.7933L19.1104 5.727C19.0911 5.6833 19.0638 5.6436 19.03 5.60996L17.7466 4.32661C17.7234 4.30346 17.6974 4.28333 17.6691 4.26671C17.5653 4.09071 17.5786 3.87131 17.71 3.74Z" fill="white"/>
<path d="M17.4533 5.09665L18.2233 5.86665L17.6733 6.41665C17.4533 6.1233 17.1967 5.86665 16.94 5.61L17.4533 5.09665Z" fill="white"/>
<path d="M9.56996 2.2H11.0366V2.96149C10.5484 2.92388 10.0581 2.92388 9.56991 2.96149L9.56996 2.2Z" fill="white"/>
<path d="M8.1033 0.733348L12.5033 0.77V1.43C12.5033 1.46665 12.5033 1.46665 12.4667 1.46665L8.1033 1.43V0.733348Z" fill="white"/>
<path d="M3.1533 5.09665L3.66665 5.61C3.41 5.86665 3.15331 6.12335 2.93331 6.41665L2.3833 5.86665L3.1533 5.09665Z" fill="white"/>
<path d="M0.843305 5.79335C0.696652 5.61 0.696652 5.35335 0.843305 5.2067L2.30996 3.74C2.3833 3.66665 2.4933 3.63 2.6033 3.63C2.7133 3.63 2.8233 3.66665 2.89665 3.74C3.0433 3.92335 3.0433 4.18 2.89665 4.32665L1.6133 5.61L1.42996 5.79335C1.2833 5.94 0.989957 5.94 0.843305 5.79335Z" fill="white"/>
<path d="M10.67 11.0468V7.70003C10.67 7.48003 10.5233 7.33337 10.3033 7.33337C10.0833 7.33337 9.93667 7.48003 9.93667 7.70003V11.0468C9.30593 11.2107 8.83667 11.7865 8.83667 12.4667C8.83667 13.2734 9.49667 13.9334 10.3033 13.9334C11.11 13.9334 11.77 13.2734 11.77 12.4667C11.77 11.7865 11.3007 11.2107 10.67 11.0468ZM10.3033 13.2C9.89997 13.2 9.56997 12.87 9.56997 12.4667C9.56997 12.0633 9.89997 11.7333 10.3033 11.7333C10.7067 11.7333 11.0367 12.0633 11.0367 12.4667C11.0367 12.87 10.7067 13.2 10.3033 13.2Z" fill="white"/>
<path d="M10.3033 13.2C9.89997 13.2 9.56997 12.87 9.56997 12.4667C9.56997 12.0633 9.89997 11.7333 10.3033 11.7333C10.7067 11.7333 11.0367 12.0633 11.0367 12.4667C11.0367 12.87 10.7067 13.2 10.3033 13.2Z" fill="white"/>
</svg>
